<svg width="1200" height="630" viewBox="0 0 1200 630" xmlns="http://www.w3.org/2000/svg"><defs><pattern id="satori_pattern_id_1" x="0" y="0" width="0.08333333333333333" height="0.15873015873015872" patternUnits="objectBoundingBox"><radialGradient id="satori_radial_id_1"><stop offset="0" stop-color="lightgray"/><stop offset="0.02" stop-color="lightgray"/><stop offset="0" stop-color="transparent"/><stop offset="1" stop-color="transparent"/></radialGradient><mask id="satori_mask_id_1"><rect x="0" y="0" width="100" height="100" fill="#fff"/></mask><rect x="0" y="0" width="100" height="100" fill="transparent"/><circle cx="75" cy="75" width="100" height="100" r="106.06601717798213" fill="url(#satori_radial_id_1)" mask="url(#satori_mask_id_1)"/></pattern><pattern id="satori_pattern_id_0" x="0" y="0" width="0.08333333333333333" height="0.15873015873015872" patternUnits="objectBoundingBox"><radialGradient id="satori_radial_id_0"><stop offset="0" stop-color="lightgray"/><stop offset="0.02" stop-color="lightgray"/><stop offset="0" stop-color="transparent"/><stop offset="1" stop-color="transparent"/></radialGradient><mask id="satori_mask_id_0"><rect x="0" y="0" width="100" height="100" fill="#fff"/></mask><rect x="0" y="0" width="100" height="100" fill="transparent"/><circle cx="25" cy="25" width="100" height="100" r="106.06601717798213" fill="url(#satori_radial_id_0)" mask="url(#satori_mask_id_0)"/></pattern></defs><mask id="satori_om-id"><rect x="0" y="0" width="1200" height="630" fill="#fff"/></mask><rect x="0" y="0" width="1200" height="630" fill="white"/><rect x="0" y="0" width="1200" height="630" fill="url(#satori_pattern_id_1)"/><rect x="0" y="0" width="1200" height="630" fill="url(#satori_pattern_id_0)"/><mask id="satori_om-id-0"><rect x="479" y="224" width="242" height="80" fill="#fff"/></mask><clipPath id="satori_cp-id-0-0"><rect x="554" y="224" width="92" height="80"/></clipPath><mask id="satori_om-id-0-0"><rect x="554" y="224" width="92" height="80" fill="#fff"/></mask><image x="554" y="224" width="92" height="80" href="data:image/svg+xml;utf8,%3Csvg  fill=%22black%22 xmlns=%22http://www.w3.org/2000/svg%22 width=%2292.3076923076923%22 height=%2280%22 viewBox=%220 0 75 65%22%3E%3Cdiv style=%22display:flex;align-items:center;justify-content:center;font-size:150%22%3E%3C/div%3E%3C/svg%3E" preserveAspectRatio="none" clip-path="url(#satori_cp-id-0-0)" mask="url(#satori_om-id-0-0)"/><mask id="satori_om-id-0-0-0"><rect x="554" y="224" width="92" height="80" fill="#fff"/></mask><path fill="black" d="M650.1 213.0L650.1 213.0L549.9 213.0Q544.9 213.0 541.3 216.7Q537.6 220.4 537.6 225.6L537.6 225.6L537.6 300.6Q537.6 305.9 541.3 309.6Q544.9 313.2 549.9 313.2L549.9 313.2L650.1 313.2Q655.1 313.2 658.7 309.6Q662.4 305.9 662.4 300.6L662.4 300.6L662.4 225.6Q662.4 220.4 658.7 216.7Q655.1 213.0 650.1 213.0ZM650.1 238.2L650.1 300.6L549.9 300.6L549.9 238.2L650.1 238.2ZM637.5 281.9L637.5 294.5L600 294.5L600 281.9L637.5 281.9ZM596.8 269.3L571.9 294.5L563.1 285.7L579.2 269.3L563.1 253.2L571.9 244.4L596.8 269.3Z "/><mask id="satori_om-id-1"><rect x="466" y="334" width="268" height="72" fill="#fff"/></mask><mask id="satori_om-id-1-0"><rect x="466" y="334" width="268" height="72" fill="#fff"/></mask><path fill="black" d="M478.4 384.0L478.4 384.0Q475.0 384.0 472.6 382.6Q470.1 381.2 468.8 378.7Q467.5 376.2 467.5 372.7L467.5 372.7Q467.5 369.4 468.8 366.8Q470.1 364.3 472.5 362.9Q474.9 361.4 478.1 361.4L478.1 361.4Q480.3 361.4 482.1 362.1Q484.0 362.8 485.4 364.2Q486.8 365.6 487.6 367.7Q488.4 369.7 488.4 372.5L488.4 372.5L488.4 374.2L469.9 374.2L469.9 370.4L482.7 370.4Q482.7 369.1 482.1 368.1Q481.5 367.1 480.5 366.5Q479.5 366.0 478.2 366.0L478.2 366.0Q476.8 366.0 475.8 366.6Q474.7 367.2 474.1 368.3Q473.5 369.3 473.5 370.6L473.5 370.6L473.5 374.2Q473.5 375.8 474.1 377.0Q474.7 378.2 475.8 378.8Q476.9 379.5 478.5 379.5L478.5 379.5Q479.5 379.5 480.3 379.2Q481.1 378.9 481.7 378.3Q482.3 377.7 482.6 376.9L482.6 376.9L488.2 377.3Q487.8 379.3 486.5 380.8Q485.2 382.3 483.1 383.1Q481.1 384.0 478.4 384.0ZM502.7 383.5L502.7 383.5L492.4 383.5L492.4 354.5L502.8 354.5Q507.2 354.5 510.4 356.2Q513.6 357.9 515.3 361.2Q517.0 364.4 517.0 369.0L517.0 369.0Q517.0 373.5 515.3 376.8Q513.6 380.0 510.4 381.8Q507.2 383.5 502.7 383.5ZM498.6 359.7L498.6 378.3L502.5 378.3Q505.2 378.3 507.1 377.3Q509.0 376.3 509.9 374.3Q510.8 372.2 510.8 369.0L510.8 369.0Q510.8 365.7 509.9 363.7Q509.0 361.7 507.1 360.7Q505.2 359.7 502.5 359.7L502.5 359.7L498.6 359.7ZM527.5 383.5L521.4 383.5L521.4 361.7L527.5 361.7L527.5 383.5ZM524.5 358.9L524.5 358.9Q523.1 358.9 522.1 358.0Q521.2 357.1 521.2 355.8L521.2 355.8Q521.2 354.6 522.1 353.7Q523.1 352.8 524.5 352.8L524.5 352.8Q525.8 352.8 526.8 353.7Q527.7 354.6 527.7 355.8L527.7 355.8Q527.7 357.1 526.8 358.0Q525.8 358.9 524.5 358.9ZM542.8 354.1L542.8 354.1Q545.0 354.1 547.1 354.8Q549.2 355.6 550.8 357.2Q552.4 358.9 553.4 361.6Q554.4 364.3 554.4 368.2L554.4 368.2Q554.4 372.0 553.5 374.9Q552.7 377.8 551.2 379.8Q549.6 381.8 547.4 382.9Q545.2 383.9 542.5 383.9L542.5 383.9Q539.6 383.9 537.4 382.8Q535.2 381.7 533.8 379.7Q532.5 377.8 532.2 375.3L532.2 375.3L538.2 375.3Q538.6 376.9 539.7 377.8Q540.9 378.7 542.5 378.7L542.5 378.7Q545.4 378.7 546.9 376.2Q548.3 373.7 548.4 369.4L548.4 369.4L548.2 369.4Q547.5 370.7 546.4 371.6Q545.3 372.5 543.9 373.0Q542.4 373.5 540.8 373.5L540.8 373.5Q538.3 373.5 536.2 372.3Q534.2 371.1 533.1 369.0Q531.9 366.9 531.9 364.1L531.9 364.1Q531.9 361.2 533.2 358.9Q534.6 356.6 537.1 355.3Q539.5 354.0 542.8 354.1ZM542.8 358.9L542.8 358.9Q541.4 358.9 540.3 359.6Q539.1 360.2 538.5 361.4Q537.8 362.5 537.9 364.0L537.9 364.0Q537.9 365.4 538.5 366.5Q539.1 367.7 540.2 368.4Q541.3 369.0 542.7 369.0L542.7 369.0Q543.8 369.0 544.7 368.6Q545.6 368.2 546.3 367.5Q547.0 366.8 547.4 365.9Q547.7 365.0 547.7 364.0L547.7 364.0Q547.7 362.6 547.1 361.4Q546.5 360.3 545.3 359.6Q544.2 358.9 542.8 358.9ZM564.8 383.5L558.7 383.5L558.7 361.7L564.6 361.7L564.6 365.5L564.8 365.5Q565.4 363.5 566.8 362.5Q568.2 361.4 570.0 361.4L570.0 361.4Q570.5 361.4 571.0 361.5Q571.5 361.5 571.9 361.6L571.9 361.6L571.9 367.0Q571.5 366.9 570.8 366.8Q570.0 366.7 569.4 366.7L569.4 366.7Q568.0 366.7 567.0 367.2Q566.0 367.8 565.4 368.8Q564.8 369.9 564.8 371.2L564.8 371.2L564.8 383.5ZM583.9 384.0L583.9 384.0Q580.6 384.0 578.2 382.6Q575.8 381.1 574.5 378.6Q573.1 376.1 573.1 372.7L573.1 372.7Q573.1 369.3 574.5 366.8Q575.8 364.3 578.2 362.9Q580.6 361.4 583.9 361.4L583.9 361.4Q587.2 361.4 589.6 362.9Q592.0 364.3 593.3 366.8Q594.6 369.3 594.6 372.7L594.6 372.7Q594.6 376.1 593.3 378.6Q592.0 381.1 589.6 382.6Q587.2 384.0 583.9 384.0ZM583.9 379.3L583.9 379.3Q585.4 379.3 586.4 378.4Q587.4 377.6 588.0 376.1Q588.5 374.6 588.5 372.7L588.5 372.7Q588.5 370.8 588.0 369.3Q587.4 367.8 586.4 366.9Q585.4 366.1 583.9 366.1L583.9 366.1Q582.4 366.1 581.4 366.9Q580.3 367.8 579.8 369.3Q579.3 370.8 579.3 372.7L579.3 372.7Q579.3 374.6 579.8 376.1Q580.3 377.6 581.4 378.4Q582.4 379.3 583.9 379.3ZM608.4 384.0L608.4 384.0Q605.1 384.0 602.7 382.6Q600.3 381.1 599.0 378.6Q597.7 376.1 597.7 372.7L597.7 372.7Q597.7 369.3 599.0 366.8Q600.3 364.3 602.7 362.9Q605.1 361.4 608.4 361.4L608.4 361.4Q611.7 361.4 614.1 362.9Q616.6 364.3 617.9 366.8Q619.2 369.3 619.2 372.7L619.2 372.7Q619.2 376.1 617.9 378.6Q616.6 381.1 614.1 382.6Q611.7 384.0 608.4 384.0ZM608.5 379.3L608.5 379.3Q610.0 379.3 611.0 378.4Q612.0 377.6 612.5 376.1Q613.0 374.6 613.0 372.7L613.0 372.7Q613.0 370.8 612.5 369.3Q612.0 367.8 611.0 366.9Q610.0 366.1 608.5 366.1L608.5 366.1Q606.9 366.1 605.9 366.9Q604.9 367.8 604.4 369.3Q603.8 370.8 603.8 372.7L603.8 372.7Q603.8 374.6 604.4 376.1Q604.9 377.6 605.9 378.4Q606.9 379.3 608.5 379.3ZM621.6 361.7L634.7 361.7L634.7 366.3L621.6 366.3L621.6 361.7ZM624.6 377.6L624.6 356.5L630.6 356.5L630.6 376.8Q630.6 377.7 630.9 378.1Q631.1 378.6 631.6 378.8Q632.1 379.0 632.7 379.0L632.7 379.0Q633.1 379.0 633.5 378.9Q633.9 378.8 634.2 378.8L634.2 378.8L635.1 383.3Q634.7 383.4 633.8 383.6Q633.0 383.8 631.8 383.8L631.8 383.8Q629.7 383.9 628.0 383.3Q626.4 382.6 625.5 381.2Q624.6 379.8 624.6 377.6L624.6 377.6Z M661.5 383.5L649.1 383.5L649.1 354.5L660.7 354.5Q663.9 354.5 666.1 355.4Q668.2 356.4 669.3 358.0Q670.4 359.7 670.4 361.9L670.4 361.9Q670.4 363.6 669.7 364.9Q669.0 366.2 667.8 367.0Q666.6 367.8 665.1 368.2L665.1 368.2L665.1 368.4Q666.8 368.5 668.2 369.4Q669.7 370.2 670.6 371.8Q671.5 373.4 671.5 375.5L671.5 375.5Q671.5 377.8 670.4 379.6Q669.2 381.4 667.0 382.5Q664.8 383.5 661.5 383.5L661.5 383.5ZM655.2 370.8L655.2 378.5L660.2 378.5Q662.8 378.5 664.0 377.5Q665.2 376.5 665.2 374.9L665.2 374.9Q665.2 373.7 664.6 372.8Q664.0 371.8 662.9 371.3Q661.9 370.8 660.4 370.8L660.4 370.8L655.2 370.8ZM655.2 359.4L655.2 366.6L659.8 366.6Q661.0 366.6 662.0 366.2Q663.0 365.7 663.6 364.9Q664.2 364.1 664.2 362.9L664.2 362.9Q664.2 361.4 663.1 360.4Q661.9 359.4 659.9 359.4L659.9 359.4L655.2 359.4ZM675.4 354.5L681.4 354.5L681.4 383.5L675.4 383.5L675.4 354.5ZM696.1 384.0L696.1 384.0Q692.8 384.0 690.4 382.6Q688.0 381.1 686.7 378.6Q685.4 376.1 685.4 372.7L685.4 372.7Q685.4 369.3 686.7 366.8Q688.0 364.3 690.4 362.9Q692.8 361.4 696.1 361.4L696.1 361.4Q699.4 361.4 701.8 362.9Q704.3 364.3 705.6 366.8Q706.9 369.3 706.9 372.7L706.9 372.7Q706.9 376.1 705.6 378.6Q704.3 381.1 701.8 382.6Q699.4 384.0 696.1 384.0ZM696.2 379.3L696.2 379.3Q697.7 379.3 698.7 378.4Q699.7 377.6 700.2 376.1Q700.7 374.6 700.7 372.7L700.7 372.7Q700.7 370.8 700.2 369.3Q699.7 367.8 698.7 366.9Q697.7 366.1 696.2 366.1L696.2 366.1Q694.6 366.1 693.6 366.9Q692.6 367.8 692.1 369.3Q691.5 370.8 691.5 372.7L691.5 372.7Q691.5 374.6 692.1 376.1Q692.6 377.6 693.6 378.4Q694.6 379.3 696.2 379.3ZM720.6 392.2L720.6 392.2Q717.7 392.2 715.6 391.4Q713.5 390.6 712.3 389.2Q711.0 387.8 710.7 386.1L710.7 386.1L716.3 385.3Q716.5 386.0 717.1 386.6Q717.6 387.1 718.5 387.5Q719.5 387.8 720.8 387.8L720.8 387.8Q722.8 387.8 724.0 386.9Q725.3 385.9 725.3 383.7L725.3 383.7L725.3 379.7L725.1 379.7Q724.7 380.6 723.9 381.4Q723.1 382.2 721.8 382.7Q720.6 383.2 718.9 383.2L718.9 383.2Q716.4 383.2 714.4 382.1Q712.4 380.9 711.2 378.6Q710.0 376.2 710.0 372.6L710.0 372.6Q710.0 368.9 711.2 366.4Q712.4 363.9 714.4 362.7Q716.4 361.4 718.8 361.4L718.8 361.4Q720.7 361.4 721.9 362.1Q723.1 362.7 723.9 363.6Q724.7 364.5 725.1 365.4L725.1 365.4L725.3 365.4L725.3 361.7L731.3 361.7L731.3 383.8Q731.3 386.5 729.9 388.4Q728.6 390.3 726.2 391.2Q723.8 392.2 720.6 392.2ZM720.8 378.7L720.8 378.7Q722.2 378.7 723.3 378.0Q724.3 377.2 724.8 375.9Q725.4 374.5 725.4 372.6L725.4 372.6Q725.4 370.6 724.8 369.2Q724.3 367.8 723.3 367.0Q722.2 366.3 720.8 366.3L720.8 366.3Q719.3 366.3 718.3 367.1Q717.2 367.9 716.7 369.3Q716.2 370.7 716.2 372.6L716.2 372.6Q716.2 374.5 716.7 375.8Q717.3 377.2 718.3 377.9Q719.3 378.7 720.8 378.7Z "/></svg>